<?xml version="1.0" encoding="utf-8"?>
<!-- Generator: Adobe Illustrator 23.0.1, SVG Export Plug-In . SVG Version: 6.00 Build 0)  -->
<svg version="1.1"
	 id="svg147969" xmlns:cc="http://creativecommons.org/ns#" xmlns:dc="http://purl.org/dc/elements/1.1/" xmlns:inkscape="http://www.inkscape.org/namespaces/inkscape" xmlns:rdf="http://www.w3.org/1999/02/22-rdf-syntax-ns#" xmlns:sodipodi="http://sodipodi.sourceforge.net/DTD/sodipodi-0.dtd" xmlns:svg="http://www.w3.org/2000/svg"
	 xmlns="http://www.w3.org/2000/svg" xmlns:xlink="http://www.w3.org/1999/xlink" x="0px" y="0px" viewBox="0 0 200 200"
	 style="enable-background:new 0 0 200 200;" xml:space="preserve">
<style type="text/css">
	.st0{fill:#78C7C9;}
	.st1{fill:#FFFFFF;}
</style>
<g>
	<path class="st0" d="M0,100c0,55.9,44.1,100,100,100s100-44.1,100-100S155.9,0,100,0S0,44.1,0,100"/>
	<path class="st1" d="M128.6,109.7h19.9l-10.2-27.1L128.6,109.7z M105.3,136L132.6,64h12.3l27.6,71.9h-15l-5.2-14.7h-27.8l-5.2,14.7
		H105.3z M64.1,75.3L68,63.8h22.1V136H77.2V75.3H64.1z M27.6,75.3l4.2-11.6h21.8V136H40.7V75.3H27.6z"/>
</g>
</svg>
