<?xml version="1.0" encoding="utf-8"?>
<!-- Generator: Adobe Illustrator 23.0.1, SVG Export Plug-In . SVG Version: 6.00 Build 0)  -->
<svg version="1.1" id="Livello_1" xmlns:svg="http://www.w3.org/2000/svg"
	 xmlns="http://www.w3.org/2000/svg" xmlns:xlink="http://www.w3.org/1999/xlink" x="0px" y="0px" viewBox="0 0 200 200"
	 style="enable-background:new 0 0 200 200;" xml:space="preserve">
<style type="text/css">
	.st0{fill:#1DBBEE;}
	.st1{fill:#FFFFFF;}
</style>
<g>
	<path class="st0" d="M200,100c0,55.1-44.6,100-99.8,100C44.6,200,0,155.1,0,100C0,44.3,44.6,0,100.3,0C155.4,0,200,44.3,200,100"/>
	<polygon class="st1" points="91.6,108.4 78,108.4 78,85 61.9,85 61.9,108.4 38.6,108.1 61.7,54.3 44.4,54.3 20.7,110 20.7,122.3 
		61.9,122.3 61.9,142 78,142 78,122.3 86.6,122.3 	"/>
	<path class="st1" d="M179.6,142L146,54.3h-14.7L97.4,142h17.3l6.6-18.1h33.8l6.6,18.1H179.6z M138.3,77.2l11.8,32.8h-23.9
		l11.8-32.8H138.3z"/>
</g>
</svg>
