<?xml version="1.0" encoding="utf-8"?>
<!-- Generator: Adobe Illustrator 23.0.1, SVG Export Plug-In . SVG Version: 6.00 Build 0)  -->
<svg version="1.1"
	 id="Livello_1" image-rendering="optimizeQuality" shape-rendering="geometricPrecision" text-rendering="geometricPrecision"
	 xmlns="http://www.w3.org/2000/svg" xmlns:xlink="http://www.w3.org/1999/xlink" x="0px" y="0px" viewBox="0 0 200 200"
	 style="enable-background:new 0 0 200 200;" xml:space="preserve">
<style type="text/css">
	.st0{fill:#FFCD1E;}
</style>
<g>
	<path class="st0" d="M100,200c55.9,0,100-44.1,100-100C200,44.1,156.2,0,100,0C44.1,0,0,44.1,0,100C0,155.9,44.1,200,100,200"/>
	<path d="M124.4,110h24.4L137,77.2h-0.2L124.4,110z M95.5,142.3l34.1-88.2h14.9l33.9,88.2h-18.1l-6.6-18.6h-34.1l-6.3,18.6H95.5z
		 M61.9,89.8c10,0,15.2-5.2,15.2-11.5c0-6-5.3-11.8-15.2-11.8c-10,0-14.2,5.8-14.2,11.8C47.8,84.5,52,89.8,61.9,89.8 M61.9,129.4
		c10.8,0,16.8-6.3,16.8-12.3c0-6.6-6-12.3-16.8-12.3c-10.5,0-16,5.8-16,12.3C46,123.1,51.4,129.4,61.9,129.4 M43.3,96.3v-0.3
		c-8.1-3.1-13.1-11-13.1-18.6c0-13.9,12.6-24.9,31.8-24.9c19.7,0,31.8,11,31.8,24.9c0,7.6-4.5,15.5-12.6,18.6v0.3
		c7.9,2.9,14.4,11.3,14.4,20.7c0,16.5-13.4,26.8-33.6,26.8c-19.7,0-33.3-10.2-33.3-26.8C28.6,107.6,35.4,99.2,43.3,96.3"/>
</g>
</svg>
