<svg xmlns="http://www.w3.org/2000/svg" xmlns:xlink="http://www.w3.org/1999/xlink" viewBox="0 0 1110 285"><defs><style>.cls-1{fill:#fff;stroke-miterlimit:10;stroke-width:18px;stroke:url(#New_Gradient_Swatch);}.cls-2{fill:url(#New_Gradient_Swatch-2);}.cls-3{fill:url(#New_Gradient_Swatch-3);}.cls-4{fill:url(#New_Gradient_Swatch-4);}.cls-5{fill:url(#New_Gradient_Swatch-5);}.cls-6{fill:url(#New_Gradient_Swatch-7);}.cls-7{fill:url(#New_Gradient_Swatch-8);}.cls-8{fill:url(#New_Gradient_Swatch-10);}</style><linearGradient id="New_Gradient_Swatch" y1="142.5" x2="1110" y2="142.5" gradientUnits="userSpaceOnUse"><stop offset="0.01" stop-color="#c7100c"/><stop offset="0.07" stop-color="#b41020"/><stop offset="0.11" stop-color="#ac1126"/><stop offset="0.32" stop-color="#7f1a46"/><stop offset="0.43" stop-color="#6e1d53"/><stop offset="0.81" stop-color="#3b2678"/><stop offset="1" stop-color="#3f00be"/></linearGradient><linearGradient id="New_Gradient_Swatch-2" x1="61.87" y1="147.88" x2="1058.87" y2="147.88" xlink:href="#New_Gradient_Swatch"/><linearGradient id="New_Gradient_Swatch-3" x1="61.87" x2="1058.87" xlink:href="#New_Gradient_Swatch"/><linearGradient id="New_Gradient_Swatch-4" x1="61.87" y1="180.18" x2="1058.87" y2="180.18" xlink:href="#New_Gradient_Swatch"/><linearGradient id="New_Gradient_Swatch-5" x1="61.87" y1="145.5" x2="1058.87" y2="145.5" xlink:href="#New_Gradient_Swatch"/><linearGradient id="New_Gradient_Swatch-7" x1="61.87" y1="146.69" x2="1058.87" y2="146.69" xlink:href="#New_Gradient_Swatch"/><linearGradient id="New_Gradient_Swatch-8" x1="61.87" y1="132.33" x2="1058.87" y2="132.33" xlink:href="#New_Gradient_Swatch"/><linearGradient id="New_Gradient_Swatch-10" x1="61.87" y1="149.35" x2="1058.87" y2="149.35" xlink:href="#New_Gradient_Swatch"/><symbol id="New_Symbol_4" data-name="New Symbol 4" viewBox="0 0 1110 285"><rect class="cls-1" x="9" y="9" width="1092" height="267"/><path class="cls-2" d="M1030.8,98.2v97h-26V182a30.58,30.58,0,0,1-11.43,11q-7.78,4.56-19.86,4.57-16.65,0-25.44-9.52t-8.78-28.91V98.2h28.18v56.55q0,9.51,3.94,14.46t12.72,4.94a21,21,0,0,0,8.23-1.47,15.18,15.18,0,0,0,5.76-4.12,16.92,16.92,0,0,0,3.39-6.22,25.75,25.75,0,0,0,1.1-7.59V98.2Z"/><path class="cls-3" d="M927.41,93.92v24.34A17.66,17.66,0,0,0,923.2,117a35.67,35.67,0,0,0-7.69-.73,20.69,20.69,0,0,0-8.42,1.55,15.81,15.81,0,0,0-5.67,4.12,17,17,0,0,0-3.3,6.13,25.75,25.75,0,0,0-1.09,7.59v56.55H868.85v-97h26v13.18a20.28,20.28,0,0,1,3.39-5.22,35.43,35.43,0,0,1,5.4-5,26.68,26.68,0,0,1,7-3.84,24.11,24.11,0,0,1,8.51-1.47,26.65,26.65,0,0,1,4.94.37C925.33,93.43,926.43,93.68,927.41,93.92Z"/><path class="cls-4" d="M846.43,173.32a17.89,17.89,0,0,1,0,13.73,16.82,16.82,0,0,1-9.15,9.15,17.89,17.89,0,0,1-13.73,0,16.82,16.82,0,0,1-9.15-9.15,17.89,17.89,0,0,1,0-13.73,16.82,16.82,0,0,1,9.15-9.15,17.89,17.89,0,0,1,13.73,0,16.82,16.82,0,0,1,9.15,9.15Z"/><path class="cls-5" d="M819.44,96.92v24.34a17.66,17.66,0,0,0-4.21-1.28,35.67,35.67,0,0,0-7.69-.73,20.69,20.69,0,0,0-8.42,1.55,15.81,15.81,0,0,0-5.67,4.12,17,17,0,0,0-3.29,6.13,25.42,25.42,0,0,0-1.1,7.59v56.55H760.88v-97h26v13.18a20.28,20.28,0,0,1,3.39-5.22,35.43,35.43,0,0,1,5.4-5,26.68,26.68,0,0,1,7-3.84,24.11,24.11,0,0,1,8.51-1.47,26.65,26.65,0,0,1,4.94.37C817.36,96.43,818.46,96.68,819.44,96.92Z"/><path class="cls-5" d="M748.07,96.92v24.34a17.66,17.66,0,0,0-4.21-1.28,35.67,35.67,0,0,0-7.69-.73,20.69,20.69,0,0,0-8.42,1.55,15.81,15.81,0,0,0-5.67,4.12,17,17,0,0,0-3.29,6.13,25.42,25.42,0,0,0-1.1,7.59v56.55H689.51v-97h26v13.18a20.28,20.28,0,0,1,3.39-5.22,35.43,35.43,0,0,1,5.4-5,26.68,26.68,0,0,1,7-3.84,24.11,24.11,0,0,1,8.51-1.47,26.65,26.65,0,0,1,4.94.37C746,96.43,747.09,96.68,748.07,96.92Z"/><path class="cls-6" d="M673.59,195.19H646.87q-.37-3.1-.64-5.49a52.84,52.84,0,0,1-.28-5.85,33.48,33.48,0,0,1-5.21,5.48,30.59,30.59,0,0,1-7,4.4,39.86,39.86,0,0,1-9,2.83,57.74,57.74,0,0,1-11.26,1,38.44,38.44,0,0,1-14-2.38,30.26,30.26,0,0,1-10.34-6.49,27.55,27.55,0,0,1-6.4-9.7,33,33,0,0,1-2.2-12.17q0-14.46,8.88-22.15T616.31,137h27.63v-4q0-8.77-4.21-12.17t-11.53-3.38q-6.94,0-10.24,2.19t-3.66,7H586.11a28.82,28.82,0,0,1,11.62-21.87A41.41,41.41,0,0,1,611,98.2a62.91,62.91,0,0,1,18.12-2.38,68.19,68.19,0,0,1,17.57,2.11,35.39,35.39,0,0,1,13.54,6.77A30.6,30.6,0,0,1,669,116.78q3.12,7.41,3.11,18v35.69q0,7.68.37,13.45T673.59,195.19Zm-29.65-36.6v-4H621.8q-6.22,0-9.24,3.29a11,11,0,0,0-3,7.68,12.9,12.9,0,0,0,3,8.79q3,3.48,10.15,3.48a25,25,0,0,0,8.33-1.38,20.29,20.29,0,0,0,6.77-3.84,17.7,17.7,0,0,0,4.48-6A18.74,18.74,0,0,0,643.94,158.59Z"/><path class="cls-7" d="M565.07,67.09v128.1h-26V182q-3.66,5.85-11.34,10.7t-18.85,4.85a44.38,44.38,0,0,1-17.2-3.2,35.63,35.63,0,0,1-13.18-9.43,42.12,42.12,0,0,1-8.42-15.64,73.27,73.27,0,0,1-2.92-21.69V144a70.81,70.81,0,0,1,2.74-20.68,40.44,40.44,0,0,1,8.14-15.1,34.34,34.34,0,0,1,13.18-9.24,47.29,47.29,0,0,1,17.66-3.11,34.34,34.34,0,0,1,15.65,3.75,33.11,33.11,0,0,1,12.35,10.89V67.09Zm-28.18,83.27v-9.15a25.72,25.72,0,0,0-1.65-9.61,20.51,20.51,0,0,0-4.48-7,17.6,17.6,0,0,0-6.77-4.2,25,25,0,0,0-8.33-1.38,19.66,19.66,0,0,0-8,1.56,17.59,17.59,0,0,0-6.22,4.57,20.15,20.15,0,0,0-4,7.69A39.67,39.67,0,0,0,496.08,144v3.66a41.93,41.93,0,0,0,1.46,11.62,23.71,23.71,0,0,0,4.12,8.33,18.23,18.23,0,0,0,6.22,5,17.51,17.51,0,0,0,7.78,1.74,22.42,22.42,0,0,0,8.33-1.56,18,18,0,0,0,6.77-4.66,22.89,22.89,0,0,0,4.48-7.6A29.24,29.24,0,0,0,536.89,150.36Z"/><path class="cls-6" d="M457.1,133H428.19q-1.47-6.58-5.4-10.16t-11.44-3.56a21.15,21.15,0,0,0-8.14,1.55,18,18,0,0,0-6.5,4.58,21.23,21.23,0,0,0-4.3,7.68A34.42,34.42,0,0,0,390.85,144v3.66a41.26,41.26,0,0,0,1.47,11.71,23.6,23.6,0,0,0,4.12,8.24,15.89,15.89,0,0,0,6.49,4.85,22.18,22.18,0,0,0,8.42,1.55,17.53,17.53,0,0,0,10.89-3.38q4.49-3.39,5.95-10.16H457.1a39.36,39.36,0,0,1-4,15.46,35.91,35.91,0,0,1-9.43,11.72A42.07,42.07,0,0,1,429.56,195a65.44,65.44,0,0,1-38.06-.55,41.23,41.23,0,0,1-25.9-24.89q-3.66-9.33-3.66-22V144a50.4,50.4,0,0,1,3.94-20.49,44.27,44.27,0,0,1,10.61-15.1A45.15,45.15,0,0,1,392.23,99a56.81,56.81,0,0,1,19.12-3.21,58.24,58.24,0,0,1,19.31,2.93,41.76,41.76,0,0,1,14,8,35.42,35.42,0,0,1,8.78,11.8A41.42,41.42,0,0,1,457.1,133Z"/><path class="cls-8" d="M348.22,142.12a79.7,79.7,0,0,1-3,23.33,46.52,46.52,0,0,1-8.33,16.2,32.28,32.28,0,0,1-12.53,9.42,40.56,40.56,0,0,1-15.83,3,44.25,44.25,0,0,1-7.69-.64,18.6,18.6,0,0,1-12-7.32,22.29,22.29,0,0,1-3.57-7.59,26.74,26.74,0,0,1-9.61,11.71q-6.14,4-15.65,4-15.56,0-24.7-10.53t-9.15-31.56v-7.14q0-21.23,8.69-31.11t23.52-9.88a35.84,35.84,0,0,1,8.6.91,22.27,22.27,0,0,1,6.31,2.56,18.31,18.31,0,0,1,4.48,3.85,20.66,20.66,0,0,1,2.93,4.57V105.52H303.2v51.06q0,8.78,1.83,12t7.14,3.21a14.06,14.06,0,0,0,6.4-1.38,11.26,11.26,0,0,0,4.67-4.75,28.85,28.85,0,0,0,2.93-9.15,85.86,85.86,0,0,0,1-14.37q0-15.74-4.39-26.81A47.09,47.09,0,0,0,310.52,97.2a48.79,48.79,0,0,0-18.85-10.34,83,83,0,0,0-24-3.3,67.4,67.4,0,0,0-23.52,4,51,51,0,0,0-18.85,12.08,55.85,55.85,0,0,0-12.44,20.12q-4.48,12.09-4.48,28.37,0,16.85,4.48,29.37a56.83,56.83,0,0,0,12.72,21A51.3,51.3,0,0,0,245.46,211a76.46,76.46,0,0,0,25.72,4.12,81.4,81.4,0,0,0,23.6-3,74.43,74.43,0,0,0,16.84-7.23v20.5a78.54,78.54,0,0,1-16.93,6.31q-9.6,2.48-23.51,2.47a99.08,99.08,0,0,1-34.32-5.67A71.35,71.35,0,0,1,193.22,185q-6-16-6-36.88,0-19.77,6.22-35.32a75.72,75.72,0,0,1,17.11-26.26A74.15,74.15,0,0,1,236.13,70.2a87.11,87.11,0,0,1,31.57-5.67q18.84,0,33.76,5a67.92,67.92,0,0,1,25.35,14.92,64.48,64.48,0,0,1,15.92,24.34Q348.22,123.27,348.22,142.12Zm-68.63,12.26V143.77a27.19,27.19,0,0,0-1-7.87,15.49,15.49,0,0,0-2.84-5.49,10.59,10.59,0,0,0-4.57-3.2,18.05,18.05,0,0,0-6.23-1q-6.58,0-10.06,4.58t-3.48,15.55V152q0,10.62,3.57,15.28T265.14,172q6.76,0,10.61-4.39T279.59,154.38Z"/><path class="cls-6" d="M172.18,195.19H145.46q-.37-3.1-.64-5.49a50.5,50.5,0,0,1-.28-5.85,33.48,33.48,0,0,1-5.21,5.48,30.88,30.88,0,0,1-7,4.4,39.61,39.61,0,0,1-9,2.83,57.74,57.74,0,0,1-11.26,1,38.4,38.4,0,0,1-14-2.38,30.16,30.16,0,0,1-10.34-6.49,27.41,27.41,0,0,1-6.4-9.7,32.84,32.84,0,0,1-2.2-12.17q0-14.46,8.88-22.15T114.9,137h27.63v-4q0-8.77-4.21-12.17t-11.53-3.38q-7,0-10.25,2.19t-3.66,7H84.7A28.73,28.73,0,0,1,96.32,104.7a41.41,41.41,0,0,1,13.27-6.5,62.86,62.86,0,0,1,18.12-2.38,68.06,68.06,0,0,1,17.56,2.11,35.43,35.43,0,0,1,13.55,6.77,30.7,30.7,0,0,1,8.78,12.08q3.1,7.41,3.11,18v35.69q0,7.68.37,13.45T172.18,195.19Zm-29.65-36.6v-4H120.39q-6.23,0-9.25,3.29a11,11,0,0,0-3,7.68,13,13,0,0,0,3,8.79q3,3.48,10.16,3.48a25,25,0,0,0,8.33-1.38,20.29,20.29,0,0,0,6.77-3.84,17.83,17.83,0,0,0,4.48-6A18.74,18.74,0,0,0,142.53,158.59Z"/></symbol></defs><title>1Asset 20</title><g id="Layer_2" data-name="Layer 2"><g id="Layer_1-2" data-name="Layer 1"><use width="1110" height="285" xlink:href="#New_Symbol_4"/></g></g></svg>